<?xml version="1.0" encoding="UTF-8"?>
<svg id="Capa_3" data-name="Capa 3" xmlns="http://www.w3.org/2000/svg" xmlns:xlink="http://www.w3.org/1999/xlink" viewBox="0 0 854.88 690.46">
  <defs>
    <style>
      .cls-1 {
        fill: url(#Degradado_sin_nombre_271);
      }

      .cls-2 {
        stroke: #211915;
        stroke-miterlimit: 10;
        stroke-width: .25px;
      }
    </style>
    <radialGradient id="Degradado_sin_nombre_271" data-name="Degradado sin nombre 271" cx="430.07" cy="360.14" fx="430.07" fy="360.14" r="172.31" gradientUnits="userSpaceOnUse">
      <stop offset="0" stop-color="#dc9a30"/>
      <stop offset=".19" stop-color="#dd9e3a"/>
      <stop offset=".5" stop-color="#e2ab55"/>
      <stop offset=".91" stop-color="#e9c181"/>
      <stop offset="1" stop-color="#ebc68c"/>
      <stop offset="1" stop-color="#ecc891"/>
    </radialGradient>
  </defs>
  <circle class="cls-1" cx="430.07" cy="360.14" r="184.52"/>
  <path class="cls-2" d="M534.22,464.68c-1.99-1.77-5-1.75-6.98.05l-19.36,17.62c-4.38,3.98-4.37,10.87,0,14.85l108.94,98.95c1.05.95,1.23,2.53.41,3.68-3.24,4.54-8.15,10.51-11.9,15.56-.76,1.03-2.24,1.17-3.2.32l-111.97-99.73c-5.43-4.84-13.64-4.83-19.05.03l-22.24,19.95c-4.09,3.67-4.06,10.09.06,13.73l51.2,45.1c1.16,1.02,1.34,2.76.39,3.99-3.51,4.55-9.24,11.91-12.45,16.17-.92,1.22-2.68,1.38-3.81.36l-74.95-67.82c-6.81-6.16-17.17-6.18-23.99-.04l-75.24,67.63c-1.33,1.19-3.4.99-4.47-.43l-11.06-14.68c-.93-1.23-.76-2.96.38-4l93.05-84.44c5.67-5.15,14.35-5.06,19.92.2l6.61,6.25c4.43,4.19,11.36,4.23,15.84.08l27.55-25.55c1.47-1.36,1.45-3.69-.03-5.03l-65.37-58.44c-6.25-5.65-10.08-5.43-16.39.16l-208.44,178.38c-8.45,7.23-18.76,11.98-29.78,13.53-21.28,3-55.05,2.48-76.6-28.11-9.35-13.27-13.96-29.31-13.96-45.54V193.53s0,0,0,0c3.51-28.63,25.5-52.33,53.98-57.34h0s154.78-.37,154.78-.37c0,0,0,0,0,0-.07-2.37.08-4.68.64-7.01,4.76-19.92,9.67-45.74,16.15-64.57,6.63-19.24,21.07-27.29,40.91-28.67h0c72.39,4.34,151.11-5.56,222.76.01,53.06,4.13,42.47,62.85,57.88,100.06,0,0,0,0,0,0l153.43.33h0c36.81,7.37,55.7,31.59,57.96,68.67,6.95,114.33-5.31,235.65-.07,350.71h0c-1.53,48.55-15.27,58.51-78.12,61.59-11.53.56-22.85-3.38-31.55-10.97,0,0-119.83-103.97-161.85-141.3ZM305.79,63.77s0,0,0,0c-4.34,1.12-6.03,3.83-7.66,7.65-9.85,23.1-10.75,57.8-20.13,81.45-2.6,6.56-5.81,8.83-12.8,9.47-49.83,4.59-109.52-5.77-158.55.09-15.77,1.88-31.48,16.47-32.91,32.49h0s-3.29,351-3.29,351h0c4.83,61.91,53.61,62.26,90.36,33.01,39.05-31.07,167.7-138.7,212.93-175.46,9-7.31,21.97-7.02,30.63.69l63.28,56.27c6.83,6.07,17.12,6.07,23.94,0l25.66-22.85c6.57-5.85,16.49-5.84,23.04.03l160.55,143.76c13.72,12.29,32.89,16.94,50.51,11.56,15.09-4.61,26.37-15.55,27.99-36.1h0s0-354.95,0-354.95c-.61-19-17.92-37.66-36.95-39.58-49.5-5-107.71,4.82-157.3.05-8.48-.81-11.28-3.15-14.15-10.89-8.61-23.19-10.1-55.15-19.2-78.2-1.7-4.31-3.76-8.24-8.62-9.47h0s-237.36,0-237.36,0Z"/>
  <path d="M195.08,220.44v26.44h-63.31c-4.73,0-10.59-7.66-11.09-12.32-.47-4.36,3.73-14.12,8.3-14.12h66.1Z"/>
</svg>